<?xml version="1.0" encoding="utf-8"?>
<svg version="1.1" xmlns="http://www.w3.org/2000/svg" x="0px" y="0px"
     viewBox="0 0 171.3 182.9" style="enable-background:new 0 0 171.3 182.9;" xml:space="preserve">
    <style>
		#kpn_logo {
			fill: black;
		}

		@media (prefers-color-scheme: dark) {
			#kpn_logo {
				fill: white;
			}
		}
	</style>
    <g id="kpn_logo">
		<path d="M161.7,72.1c-5.4-5.4-15.3-11.8-32.2-11.8c-3.1,0-6.2,0.2-9.1,0.6l-0.9,0.1l0.3,0.9c0.8,2.6,1.4,5.5,1.8,8.4l0.1,0.8
			l0.8-0.1c2.4-0.3,4.7-0.4,7-0.4c13.4,0,21,4.8,25,8.8c4.2,4.2,6.5,9.6,6.5,15c0,6.9-3.6,15.6-7.2,24.1c-1.7,4.2-4.9,12.3-6.7,19.2
			c-3.3,13.1-8.8,35-21.9,35c-4.3,0-9.4-2.4-15.5-7.2c-3.3,1.9-6.8,3.4-10.5,4.6c9.8,8.7,18.1,12.8,26,12.8
			c21.2,0,28.1-27.8,31.8-42.7c1.1-4.6,3.3-10.8,6.2-17.7c3.9-9.4,8-19.1,8-28C171.3,86.3,167.8,78.2,161.7,72.1z"/>
		<path d="M116,52.2l0.9-0.2c2.9-0.5,5.9-0.8,9.1-1c0.3,0,0.6,0,0.9,0C112.9,17.7,77.2,0,56.7,0C29.6,0,20,27.6,20,53.4
			c0,12,4.1,24.6,7.5,33l0.3,0.8l0.8-0.3c2.4-1.1,5-2.1,8-3.2l0.8-0.3L37,82.6c-4.3-10.6-6.8-21.3-6.8-29.2c0-16.5,4-30,11.1-37
			c4.1-4.1,9.1-6.1,15.4-6.1C72.8,10.3,103,25.2,116,52.2z"/>
		<path d="M94.9,151.3l-0.4-0.4l-0.5,0.2c-5.5,2-11.1,2.9-17.2,2.9c-20,0-41.8-8.9-55.6-22.8c-6.9-6.9-10.9-14.3-10.9-20.2
			c0-8.1,3-14.1,9.4-19c-1.2-2.9-2.6-6.3-3.8-9.9C5.2,89.2,0,98.7,0,111c0,8.7,4.9,18.5,13.9,27.5c12.4,12.5,35.5,25.8,62.9,25.8
			c8.6,0,16.8-1.7,24.4-5l1.1-0.5l-0.8-0.8C99.1,155.7,96.9,153.4,94.9,151.3z"/>
		<path d="M83.2,79.9v-9C81,70.3,78.5,70,75.9,70c-10.5,0-15.6,7.1-15.6,14.2c0,6.8,2.5,13.3,11.9,27.9c3.8-0.5,7.6-0.8,11.4-0.9
			c-8.2-15.2-10.2-20.6-10.2-24.5c0-4.5,2.6-6.8,7.9-6.8C82,79.8,82.6,79.9,83.2,79.9z"/>
		<path d="M54.7,93.1c-0.8-2-1.3-5.3-1.6-7.7c-8.3-0.3-14.6,4.5-14.6,11.2c0,5.4,2.8,10.2,14.2,19.9c2.9-1,6.8-2.1,10.1-2.8
			c-11.2-10.5-13-13.3-13-16.4C50,95.1,51.6,93.6,54.7,93.1z"/>
		<path d="M90.9,79.9v-9c2.1-0.6,4.7-0.9,7.3-0.9c10.4,0,15.6,7.1,15.6,14.2c0,6.8-2.5,13.3-11.9,27.9c-3.8-0.5-7.6-0.8-11.4-0.9
			c8.2-15.2,10.2-20.6,10.2-24.5c0-4.5-2.6-6.8-7.9-6.8C92,79.8,91.4,79.9,90.9,79.9z"/>
		<path d="M119.3,93.1c0.8-2,1.3-5.3,1.6-7.7c8.3-0.3,14.6,4.5,14.6,11.2c0,5.4-2.8,10.2-14.2,19.9c-2.9-1-6.8-2.1-10.1-2.8
			c11.2-10.5,13-13.3,13-16.4C124.1,95.1,122.5,93.6,119.3,93.1z"/>
		<path d="M87,130.2c8.4,0,17,1.1,25.9,3.8l3-10c-10-3-19.8-4.2-29-4.2c-9.2,0-18.9,1.2-29,4.2l3,10C70,131.3,78.6,130.2,87,130.2z"
		/>
		<rect x="80.5" y="49.3" transform="matrix(0.7072 -0.7071 0.7071 0.7072 -13.9992 77.8744)" width="13.1"
			  height="13.1"/>
	</g>
</svg>
